<svg width="19" height="19" viewBox="0 0 19 19" fill="none" xmlns="http://www.w3.org/2000/svg">
<g clip-path="url(#clip0_151_2139)">
<path d="M8.7085 3.16663H3.16683C2.7469 3.16663 2.34418 3.33344 2.04724 3.63037C1.75031 3.92731 1.5835 4.33003 1.5835 4.74996V15.8333C1.5835 16.2532 1.75031 16.6559 2.04724 16.9529C2.34418 17.2498 2.7469 17.4166 3.16683 17.4166H14.2502C14.6701 17.4166 15.0728 17.2498 15.3697 16.9529C15.6667 16.6559 15.8335 16.2532 15.8335 15.8333V10.2916" stroke="#057092" stroke-width="1.5" stroke-linecap="round" stroke-linejoin="round"/>
<path d="M14.646 1.97918C14.9609 1.66424 15.3881 1.4873 15.8335 1.4873C16.2789 1.4873 16.7061 1.66424 17.021 1.97918C17.3359 2.29413 17.5129 2.72128 17.5129 3.16668C17.5129 3.61208 17.3359 4.03924 17.021 4.35418L9.50016 11.875L6.3335 12.6667L7.12516 9.50002L14.646 1.97918Z" stroke="#057092" stroke-width="1.5" stroke-linecap="round" stroke-linejoin="round"/>
</g>
<defs>
<clipPath id="clip0_151_2139">
<rect width="19" height="19" fill="white"/>
</clipPath>
</defs>
</svg>
