<svg width="148" height="81" viewBox="0 0 148 81" fill="none" xmlns="http://www.w3.org/2000/svg">
<g clip-path="url(#clip0_5_2778)">
<mask id="mask0_5_2778" style="mask-type:luminance" maskUnits="userSpaceOnUse" x="0" y="0" width="148" height="81">
<path d="M147.93 0H0V80.8H147.93V0Z" fill="white"/>
</mask>
<g mask="url(#mask0_5_2778)">
<path d="M22.07 40.7999C22.07 51.1599 29.57 58.73 41.07 58.73C44.6796 58.8432 48.2474 57.9313 51.36 56.0999C52.2697 55.5377 52.9188 54.6371 53.1644 53.5963C53.4101 52.5554 53.2323 51.4596 52.67 50.5499C52.3916 50.0995 52.0272 49.7083 51.5976 49.3987C51.168 49.0891 50.6817 48.8671 50.1663 48.7455C49.1255 48.4998 48.0297 48.6777 47.12 49.2399C45.3456 50.2142 43.3434 50.6974 41.32 50.6399C36.24 50.6399 32.71 47.9799 31.78 43.6399H54.4C55.1223 43.648 55.8184 43.3694 56.3357 42.8652C56.8531 42.361 57.1495 41.6723 57.16 40.9499C57.16 29.7599 49.61 22.9499 39.83 22.9499C29.69 22.8799 22.07 30.3899 22.07 40.7999ZM48.07 37.7999H31.67C32.35 33.3399 35.51 30.5599 39.9 30.5599C44.29 30.5599 47.39 33.3599 48.07 37.7599V37.7999Z" fill="url(#paint0_linear_5_2778)"/>
<path d="M63.24 41.7499C63.011 47.2306 60.8655 52.457 57.1776 56.5177C53.4897 60.5784 48.4934 63.2158 43.06 63.9699C42.2579 64.0857 41.5246 64.4875 40.9954 65.1013C40.4661 65.715 40.1765 66.4995 40.18 67.3099C40.18 67.7931 40.2833 68.2707 40.483 68.7107C40.6826 69.1507 40.9741 69.5429 41.3377 69.8611C41.7013 70.1793 42.1288 70.4161 42.5914 70.5556C43.054 70.6951 43.5411 70.734 44.02 70.6699C50.806 69.7293 57.0692 66.5057 61.7784 61.53C66.4875 56.5542 69.3616 50.1231 69.9275 43.2957C70.4933 36.4683 68.7171 29.6517 64.8914 23.9686C61.0656 18.2855 55.4185 14.0748 48.88 12.0299C48.0333 11.7857 47.1249 11.8798 46.3462 12.2923C45.5675 12.7047 44.9794 13.4034 44.7058 14.2411C44.4322 15.0787 44.4945 15.9899 44.8796 16.7825C45.2647 17.5751 45.9424 18.1872 46.77 18.4899C51.6944 20.0108 55.9785 23.1155 58.9569 27.3217C61.9352 31.5278 63.4409 36.5999 63.24 41.7499Z" fill="url(#paint1_linear_5_2778)"/>
<path d="M22.07 66.7401C20.5759 66.7421 19.1217 67.2222 17.92 68.11C13.7218 64.7414 10.3571 60.4498 8.08753 55.569C5.81799 50.6882 4.70476 45.3497 4.8344 39.9687C4.96404 34.5876 6.33307 29.3089 8.83502 24.543C11.337 19.7772 14.9044 15.6526 19.26 12.4901C20.5076 13.5004 22.0646 14.0511 23.67 14.05C25.0545 14.05 26.4079 13.6395 27.559 12.8703C28.7101 12.1012 29.6073 11.0079 30.1372 9.72884C30.667 8.44975 30.8056 7.04229 30.5355 5.68442C30.2654 4.32655 29.5987 3.07927 28.6197 2.1003C27.6408 1.12134 26.3935 0.454652 25.0356 0.184556C23.6778 -0.0855412 22.2703 0.0530803 20.9912 0.582894C19.7121 1.11271 18.6189 2.00991 17.8497 3.16106C17.0805 4.3122 16.67 5.66558 16.67 7.05005C16.664 7.47556 16.6975 7.90072 16.77 8.32005C11.7165 11.9102 7.57019 16.6298 4.6608 22.1036C1.7514 27.5774 0.159136 33.6545 0.0105902 39.8517C-0.137956 46.0489 1.16131 52.1952 3.8051 57.8022C6.44889 63.4091 10.3643 68.3219 15.24 72.1501C15.1153 72.6811 15.0516 73.2246 15.05 73.7701C15.05 75.1545 15.4605 76.5079 16.2297 77.659C16.9989 78.8102 18.0921 79.7074 19.3712 80.2372C20.6503 80.767 22.0578 80.9056 23.4156 80.6355C24.7735 80.3654 26.0208 79.6988 26.9997 78.7198C27.9787 77.7408 28.6454 76.4935 28.9155 75.1357C29.1856 73.7778 29.047 72.3703 28.5172 71.0913C27.9873 69.8122 27.0901 68.7189 25.939 67.9498C24.7878 67.1806 23.4345 66.7701 22.05 66.7701L22.07 66.7401Z" fill="url(#paint2_linear_5_2778)"/>
<path d="M110.05 55.75C108.689 55.7475 107.358 56.1415 106.217 56.8838C105.077 57.6262 104.178 58.6847 103.63 59.93H69.26L68.54 60.93C65.5525 65.1819 61.6558 68.7152 57.1326 71.2735C52.6094 73.8317 47.5733 75.3506 42.39 75.72C41.7518 75.7642 41.1571 76.0593 40.7359 76.5407C40.3147 77.0222 40.1012 77.6508 40.1422 78.2892C40.1832 78.9276 40.4752 79.5238 40.9545 79.9475C41.4338 80.3711 42.0614 80.5877 42.7 80.55C48.3843 80.1507 53.9161 78.5331 58.9199 75.8068C63.9237 73.0806 68.2824 69.3097 71.7 64.75H103.27C103.641 65.9928 104.349 67.1082 105.316 67.9719C106.284 68.8355 107.472 69.4134 108.749 69.6412C110.026 69.8689 111.341 69.7375 112.547 69.2616C113.753 68.7857 114.804 67.984 115.581 66.946C116.359 65.9079 116.832 64.6743 116.95 63.3828C117.067 62.0912 116.823 60.7925 116.245 59.6314C115.667 58.4704 114.778 57.4927 113.678 56.8073C112.577 56.1219 111.307 55.7559 110.01 55.75H110.05Z" fill="url(#paint3_linear_5_2778)"/>
<path d="M126.84 45.3401C125.444 45.3375 124.08 45.7522 122.922 46.5309C121.763 47.3096 120.864 48.4167 120.34 49.7101H77.77C77.1281 49.7101 76.5126 49.9651 76.0588 50.4189C75.6049 50.8727 75.35 51.4883 75.35 52.1301C75.35 52.7719 75.6049 53.3875 76.0588 53.8413C76.5126 54.2951 77.1281 54.5501 77.77 54.5501H120.13C120.536 55.7715 121.272 56.8572 122.255 57.6878C123.239 58.5184 124.432 59.0617 125.704 59.2581C126.976 59.4544 128.278 59.2962 129.466 58.8008C130.654 58.3053 131.683 57.4919 132.438 56.4499C133.194 55.4079 133.648 54.1776 133.75 52.8944C133.852 51.6112 133.598 50.3248 133.016 49.1765C132.435 48.0282 131.547 47.0626 130.452 46.3857C129.358 45.7089 128.097 45.3471 126.81 45.3401H126.84Z" fill="url(#paint4_linear_5_2778)"/>
<path d="M140.9 26.34C139.576 26.3409 138.28 26.7171 137.161 27.4251C136.042 28.1331 135.147 29.1439 134.58 30.34H108.12L98.52 39.94H79.77C79.5446 30.2385 75.7949 20.9508 69.2213 13.8123C62.6478 6.67379 53.7001 2.1727 44.05 1.14999C43.4266 1.11098 42.8122 1.31451 42.3355 1.71802C41.8587 2.12154 41.5564 2.69378 41.4918 3.31505C41.4272 3.93633 41.6054 4.55851 41.989 5.05146C42.3725 5.54441 42.9319 5.86995 43.55 5.95999C52.3958 6.90649 60.552 11.1776 66.3684 17.9092C72.1847 24.6408 75.2271 33.3304 74.88 42.22L74.78 44.74H100.53L110.13 35.14H134.13C134.466 36.4016 135.148 37.5442 136.099 38.4387C137.049 39.3332 138.232 39.9439 139.511 40.2019C140.791 40.4598 142.118 40.3548 143.341 39.8985C144.564 39.4423 145.635 38.6531 146.434 37.62C147.232 36.587 147.725 35.3513 147.858 34.0525C147.991 32.7538 147.758 31.4438 147.186 30.2704C146.613 29.0971 145.724 28.1073 144.619 27.4127C143.513 26.7182 142.236 26.3466 140.93 26.34H140.9Z" fill="url(#paint5_linear_5_2778)"/>
<path d="M85.5 28.1101C86.9403 28.1115 88.346 27.6686 89.5253 26.8418C90.7047 26.015 91.6003 24.8446 92.09 23.4901H120.25C120.818 25.0321 121.911 26.3251 123.336 27.1426C124.762 27.96 126.43 28.2499 128.047 27.9613C129.665 27.6728 131.13 26.8242 132.185 25.5643C133.24 24.3044 133.818 22.7134 133.818 21.0701C133.818 19.4267 133.24 17.8358 132.185 16.5758C131.13 15.3159 129.665 14.4674 128.047 14.1788C126.43 13.8903 124.762 14.1801 123.336 14.9976C121.911 15.8151 120.818 17.1081 120.25 18.6501H92.1C91.6533 17.4546 90.8882 16.4039 89.8876 15.6118C88.887 14.8197 87.6888 14.3162 86.4227 14.1557C85.1566 13.9953 83.8707 14.1841 82.7041 14.7016C81.5376 15.2192 80.5347 16.0458 79.8039 17.0921C79.0731 18.1384 78.6423 19.3646 78.5581 20.638C78.4738 21.9115 78.7393 23.1837 79.3258 24.3172C79.9123 25.4507 80.7976 26.4022 81.8858 27.069C82.974 27.7357 84.2238 28.0923 85.5 28.1001V28.1101Z" fill="url(#paint6_linear_5_2778)"/>
</g>
</g>
<defs>
<linearGradient id="paint0_linear_5_2778" x1="29.53" y1="10.1099" x2="52.81" y2="80.61" gradientUnits="userSpaceOnUse">
<stop offset="0.35" stop-color="white"/>
<stop offset="0.84" stop-color="white"/>
</linearGradient>
<linearGradient id="paint1_linear_5_2778" x1="40.15" y1="6.6099" x2="63.43" y2="77.1099" gradientUnits="userSpaceOnUse">
<stop stop-color="white"/>
<stop offset="0.37" stop-color="white"/>
<stop offset="0.6" stop-color="white"/>
<stop offset="0.79" stop-color="white"/>
<stop offset="0.9" stop-color="white"/>
</linearGradient>
<linearGradient id="paint2_linear_5_2778" x1="11.83" y1="15.96" x2="35.11" y2="86.46" gradientUnits="userSpaceOnUse">
<stop stop-color="white"/>
<stop offset="0.37" stop-color="white"/>
<stop offset="0.6" stop-color="white"/>
<stop offset="0.79" stop-color="white"/>
<stop offset="0.9" stop-color="white"/>
</linearGradient>
<linearGradient id="paint3_linear_5_2778" x1="47.98" y1="67.61" x2="122.21" y2="69.07" gradientUnits="userSpaceOnUse">
<stop stop-color="white"/>
<stop offset="0.38" stop-color="white"/>
<stop offset="0.63" stop-color="white"/>
<stop offset="0.83" stop-color="white"/>
<stop offset="0.95" stop-color="white"/>
</linearGradient>
<linearGradient id="paint4_linear_5_2778" x1="84.81" y1="-8.1399" x2="108.09" y2="62.3601" gradientUnits="userSpaceOnUse">
<stop stop-color="white"/>
<stop offset="0.38" stop-color="white"/>
<stop offset="0.63" stop-color="white"/>
<stop offset="0.83" stop-color="white"/>
<stop offset="0.95" stop-color="white"/>
</linearGradient>
<linearGradient id="paint5_linear_5_2778" x1="85.88" y1="-8.49001" x2="109.16" y2="62.01" gradientUnits="userSpaceOnUse">
<stop stop-color="white"/>
<stop offset="0.38" stop-color="white"/>
<stop offset="0.63" stop-color="white"/>
<stop offset="0.83" stop-color="white"/>
<stop offset="0.95" stop-color="white"/>
</linearGradient>
<linearGradient id="paint6_linear_5_2778" x1="95.37" y1="-11.6299" x2="118.65" y2="58.8701" gradientUnits="userSpaceOnUse">
<stop stop-color="white"/>
<stop offset="0.38" stop-color="white"/>
<stop offset="0.63" stop-color="white"/>
<stop offset="0.83" stop-color="white"/>
<stop offset="0.95" stop-color="white"/>
</linearGradient>
<clipPath id="clip0_5_2778">
<rect width="148" height="81" fill="white"/>
</clipPath>
</defs>
</svg>
